<svg width="53" height="53" viewBox="0 0 49 49" fill="none"
    xmlns="http://www.w3.org/2000/svg">
    <g filter="url(#filter0_d_100_412)">
        <path d="M22.5 0C10.0936 0 0 10.0936 0 22.5C0 34.9064 10.0936 45 22.5 45C34.9064 45 45 34.9064 45 22.5C45 10.0936 34.9064 0 22.5 0ZM31.1538 24.2308H24.2308V31.1538C24.2308 31.6129 24.0484 32.0531 23.7238 32.3777C23.3993 32.7023 22.959 32.8846 22.5 32.8846C22.041 32.8846 21.6007 32.7023 21.2762 32.3777C20.9516 32.0531 20.7692 31.6129 20.7692 31.1538V24.2308H13.8462C13.3871 24.2308 12.9469 24.0484 12.6223 23.7238C12.2977 23.3993 12.1154 22.959 12.1154 22.5C12.1154 22.041 12.2977 21.6007 12.6223 21.2762C12.9469 20.9516 13.3871 20.7692 13.8462 20.7692H20.7692V13.8462C20.7692 13.3871 20.9516 12.9469 21.2762 12.6223C21.6007 12.2977 22.041 12.1154 22.5 12.1154C22.959 12.1154 23.3993 12.2977 23.7238 12.6223C24.0484 12.9469 24.2308 13.3871 24.2308 13.8462V20.7692H31.1538C31.6129 20.7692 32.0531 20.9516 32.3777 21.2762C32.7023 21.6007 32.8846 22.041 32.8846 22.5C32.8846 22.959 32.7023 23.3993 32.3777 23.7238C32.0531 24.0484 31.6129 24.2308 31.1538 24.2308Z" fill="#6A728E" />
    </g>
    <defs>
        <filter id="filter0_d_100_412" x="0" y="0" width="53" height="53" filterUnits="userSpaceOnUse" color-interpolation-filters="sRGB">
            <feFlood flood-opacity="0" result="BackgroundImageFix" />
            <feColorMatrix in="SourceAlpha" type="matrix" values="0 0 0 0 0 0 0 0 0 0 0 0 0 0 0 0 0 0 127 0" result="hardAlpha" />
            <feOffset dx="4" dy="4" />
            <feGaussianBlur stdDeviation="2" />
            <feComposite in2="hardAlpha" operator="out" />
            <feColorMatrix type="matrix" values="0 0 0 0 0 0 0 0 0 0 0 0 0 0 0 0 0 0 0.25 0" />
            <feBlend mode="normal" in2="BackgroundImageFix" result="effect1_dropShadow_100_412" />
            <feBlend mode="normal" in="SourceGraphic" in2="effect1_dropShadow_100_412" result="shape" />
        </filter>
    </defs>
</svg>