<svg xmlns="http://www.w3.org/2000/svg" width="3" height="10" viewBox="0 0 3 10" fill="none">
    <path d="M1.47266 6.10156C2.28598 6.10156 2.94531 5.60138 2.94531 4.98438C2.94531 4.36737 2.28598 3.86719 1.47266 3.86719C0.659331 3.86719 0 4.36737 0 4.98438C0 5.60138 0.659331 6.10156 1.47266 6.10156Z" fill="white"/>
    <path d="M1.47266 9.96875C2.28598 9.96875 2.94531 9.46857 2.94531 8.85156C2.94531 8.23456 2.28598 7.73438 1.47266 7.73438C0.659331 7.73438 0 8.23456 0 8.85156C0 9.46857 0.659331 9.96875 1.47266 9.96875Z" fill="white"/>
    <path d="M1.47266 2.23438C2.28598 2.23438 2.94531 1.73419 2.94531 1.11719C2.94531 0.500182 2.28598 0 1.47266 0C0.659331 0 0 0.500182 0 1.11719C0 1.73419 0.659331 2.23438 1.47266 2.23438Z" fill="white"/>
</svg>